<svg width="170" height="50" viewBox="0 0 170 50" fill="none" xmlns="http://www.w3.org/2000/svg">
<path d="M0 48.7L-8.74228e-09 48.5C2.8 47.9 3.2 45.6 3.2 42.3L3.2 8.20004C3.2 4.90004 2.8 2.50004 -2.04132e-06 2.00004L-2.05006e-06 1.80005L14.7 1.80004L14.7 2.00004C11.3 2.60004 11.1 4.90004 11.1 8.20004L11.1 24.4L31.8 24.4L31.8 8.10004C31.8 4.80004 31.4 2.40004 28.6 1.90004L28.6 1.70004L43.3 1.70004L43.3 1.90004C39.9 2.50004 39.8 4.80004 39.8 8.10004L39.8 42.2C39.8 45.5 39.9 47.9 43.3 48.4L43.3 48.7L28.7 48.7L28.7 48.5C31.4 47.9 31.9 45.6 31.9 42.3L31.9 26.2L11.1 26.2L11.1 42.2C11.1 45.5 11.2 47.9 14.7 48.4L14.7 48.7L0 48.7Z" fill="black"/>
<path d="M52.1 30.3C52.1 27.8 53.9 25.9 56.3 25.9C58.8 25.9 60.4 27.7 60.4 30.3C60.4 32.8 58.7 34.7 56.2 34.7C53.7 34.7 52 32.8 52.1 30.3Z" fill="black"/>
<path d="M63 48.7L63 48.5C66.8 48 68.7 46.5 73.3 36.2L89 1.00004L89.2 1.00004L107.6 43.4C108.8 46.2 110 48.2 112.5 48.5L112.5 48.7L95.2 48.7L95.2 48.5C99 48.4 99.3 45.8 98.2 43.2L94.3 33.7L76.3 33.7L75.1 36.4C70.5 46.6 73 48.3 78.3 48.5L78.3 48.7L63 48.7ZM77.1 31.9L93.6 31.9L85.8 12.8L85.6 12.8L77.1 31.9Z" fill="black"/>
<path d="M117.2 30.3C117.2 27.8 119 25.9 121.4 25.9C123.9 25.9 125.5 27.7 125.5 30.3C125.5 32.8 123.8 34.7 121.3 34.7C118.9 34.7 117.1 32.8 117.2 30.3Z" fill="black"/>
<path d="M153.4 46.9C162.9 46.9 166.4 43.2 169.5 36.2L169.7 36.3L167.7 49.3L167.5 49.3C165.5 48.7 163.5 48.6 159.8 48.6L133.8 48.6L133.8 48.4L159.3 3.40005L151 3.40005C142.7 3.40005 138.5 6.70005 135.4 13.6L135.2 13.5L137.2 0.900047L137.4 0.900047C139.4 1.50005 141.4 1.60005 145.1 1.60005L169.5 1.60005L169.5 1.80005L144 46.8L153.4 46.8L153.4 46.9Z" fill="black"/>
</svg>
